<svg xmlns="http://www.w3.org/2000/svg" width="881.634" height="446.888" viewBox="0 0 881.634 446.888">
  <g id="Group_6" data-name="Group 6" transform="translate(-304 -245.587)">
    <g id="Group_5" data-name="Group 5">
      <g id="Group_2" data-name="Group 2" transform="translate(304 247)">
        <path id="Path_11" data-name="Path 11" d="M305.66,219.941c-.264-.232-.514-.48-.773-.718-.009.024-.011.05-.021.074Z" transform="translate(-156.373 -156.01)" fill="#2f2e41"/>
        <path id="Path_15" data-name="Path 15" d="M874.637,349.406a140.208,140.208,0,1,1-8.877-49.372c.306.823.6,1.647.894,2.478v.008q1.941,5.481,3.419,11.167a141.157,141.157,0,0,1,4.564,35.72Z" transform="translate(-156.373 -156.01)" fill="#3f3d56"/>
        <path id="Path_16" data-name="Path 16" d="M718.041,254.172a47.36,47.36,0,0,0-41.577-1.7c-5.813,2.53-11.934,7.068-13.874,15.264,7.843-4.629,18,2.685,20.014,14.417l-.471.13c-1.066,8.126,1.314,16.974,5.921,22.013a15.482,15.482,0,0,1,7.431-11.021c3.385-2.225,7.13-3.842,9.713-7.666,3.063-4.534,3.841-11.161,5.057-17.207S713.781,255.856,718.041,254.172Z" transform="translate(-156.373 -156.01)" fill="#6c63ff"/>
        <path id="Path_17" data-name="Path 17" d="M674.137,323.324c-2.172,3.262-5.074,5.309-7.677,7.858a17.673,17.673,0,0,0-5.583,10.437c-.329,2.839.18,5.724.11,8.595s-1.027,6.1-2.98,6.814c-3.082,1.113-5.434-4.611-8.6-5.011-2.517-.314-4.784,3.646-4.054,7.081s4.156,4.956,6.124,2.713c1.78,2.988.525,8.406-2.149,9.324-.282,1.882-.565,3.756-.839,5.638-6.76-4.729-13.59-9.536-19.338-16.46A49.962,49.962,0,0,1,617.762,333.4c-.745-7.959.361-17.064-3.294-23.188-2.925-4.9-7.944-5.983-12.461-5.678-.823.055-1.655.149-2.478.251a139.608,139.608,0,0,1,10.108-23.133,9.9,9.9,0,0,0,2.533-1.576c4.2-3.568,6.07-10.79,9.481-15.786q.329-.482.682-.941c3.49-4.556,8.163-6.9,12.68-9.081,10-4.854,20.287-9.771,30.842-9.1l-3,.29q-5.258,14.727-10.524,29.454-.8,2.258-1.615,4.525c-1.992,5.583-4.046,11.527-3.741,17.777.18,3.7,1.466,7.654,3.913,8.924,2.282,1.176,4.776-.267,6.979-1.694.933-.6,1.859-1.192,2.792-1.8,3.348-2.157,7.058-4.368,10.594-2.925,3.239,1.317,5.63,5.717,6.085,10.461a20.914,20.914,0,0,1-3.2,13.135Z" transform="translate(-156.373 -156.01)" fill="#6c63ff"/>
        <path id="Path_18" data-name="Path 18" d="M694.052,390.353l-29.339-18.064.166-.428c-6.08,2.316-8.6,13.124-7.6,21.963s4.412,16.74,6.133,25.353a67.293,67.293,0,0,1-2.537,35.311,289.188,289.188,0,0,0,33.971-46.811,25.044,25.044,0,0,0,3.073-6.814,10.839,10.839,0,0,0-.719-7.709,8.583,8.583,0,0,0-3.149-2.8Z" transform="translate(-156.373 -156.01)" fill="#6c63ff"/>
        <path id="Path_19" data-name="Path 19" d="M655.455,280.807a10.814,10.814,0,0,0-.5,7.864,8.717,8.717,0,0,0,4.87,4.511l5.4,2.678c1.8.891,3.735,1.791,5.568,1.058,2.21-.884,3.743-4.349,3.346-7.566-.422-3.423-2.58-5.778-4.575-7.783l-8.378-8.419-1.574,1.928A21.022,21.022,0,0,0,655.455,280.807Z" transform="translate(-156.373 -156.01)" fill="#6c63ff"/>
        <path id="Path_20" data-name="Path 20" d="M845.669,317.4l7.293,1.717c-.424,8.21-4.493,15.809-9.951,18.562-2.274,1.145-4.807,1.568-6.689,3.709-1.7,1.945-2.564,4.972-3.356,7.865l-4.164,15.15c-1.49,5.442-3.4,11.488-7.277,13.449-3.325,1.686-7.128-.376-9.685-3.835s-4.117-8.108-5.63-12.641c.094,4.94-2.2,9.787-5.458,11.5s-7.23.165-9.41-3.67c-1.568-2.753-2.219-6.383-3.756-9.175s-4.76-4.391-6.438-1.772c-1.106,1.741-.965,4.407-1.514,6.619a7.187,7.187,0,0,1-6.007,5.779,10.017,10.017,0,0,1-7.191-3.286,32.574,32.574,0,0,1-8.932-18.013,21.489,21.489,0,0,1,.251-9.849c.965-3.05,3.293-5.4,5.607-4.823,1.521-3.215-1.482-7.481-4.187-7.1s-4.838,3.286-7.065,5.521-5.325,3.858-7.56,1.639A3.066,3.066,0,0,1,741.677,338q-.12.007-.241.005a11.119,11.119,0,0,1-4.054-2.149c-5.121-3.192-11.622-1.074-15.26,4.964,2.274-9.677,5.607-20.781,12.594-23.055,2.855-.933,5.968-.165,8.665-1.78,4.776-2.862,5.74-13.676,1.615-18.138.525,4.219.424,9.144-1.8,12.029s-6.9,1-6.618-3.262a2.858,2.858,0,0,1-5.317,1.129c-1.482-2.258-1.357-5.952-.306-8.649a20.373,20.373,0,0,1,4.572-6.493c3.725-3.991,7.5-8.03,11.818-10.539s9.308-3.356,13.637-.863c2.282,1.317,4.29,3.513,6.619,4.674a4.9,4.9,0,0,0,6.753-1.582q.039-.063.077-.128c1.733-3.043.917-7.56,1.56-11.363,1.153-6.72,7.873-9.865,11.6-5.427-2.784-.714-5.662,2.58-6.007,6.572s1.663,8.022,4.36,9.23c4.533,2.007,8.971-3.043,12.4-7.716q5.364-7.34,10.743-14.672A17.724,17.724,0,0,1,811,258.448a6.182,6.182,0,0,1,8.446-.172c3.623,2.956,5.325,9.018,8.3,13.19,4.313,6.062,10.767,7.536,16.774,8.712q6.716,1.306,13.441,2.627a139.284,139.284,0,0,1,7.8,17.229,47.222,47.222,0,0,0-20.091,17.37Z" transform="translate(-156.373 -156.01)" fill="#6c63ff"/>
        <path id="Path_21" data-name="Path 21" d="M870.073,313.686a28.266,28.266,0,0,0-1.49,8.4c-3.842-4.689-4.454-13.48-1.929-19.565Q868.595,308,870.073,313.686Z" transform="translate(-156.373 -156.01)" fill="#6c63ff"/>
        <path id="Path_22" data-name="Path 22" d="M860.145,411.756a140.592,140.592,0,0,1-11.684,19.55c-2.823-1.208-5.858.949-8.5,2.972-2.76,2.117-6.077,4.18-8.908,2.251-2.894-1.976-3.827-7.5-2.909-11.888a31.675,31.675,0,0,1,5.427-11.167c2.353-3.513,4.87-7.16,8.14-8.524s7.489.565,8.446,5.223l2.321-.078c-1.3-1.788-.619-5.489,1.129-6.14,2.015-.761,3.764,2.007,4.956,4.454C859.094,409.513,859.635,410.627,860.145,411.756Z" transform="translate(-156.373 -156.01)" fill="#6c63ff"/>
        <path id="Path_23" data-name="Path 23" d="M771.245,378.633c-4.989.314-8.941-5.828-11.567-11.871s-5.022-12.952-9.524-16.028c-2.572-1.757-5.5-2-8.295-2.85a10.271,10.271,0,0,1-7.044-6.2l-3.165-1.278a47.53,47.53,0,0,0-12.016,8.568,26.856,26.856,0,0,0-7.16,15.653c-.6,6.335,1.628,13.4,5.8,15.778,3.3,1.88,7.134.7,10.472,2.417,4.171,2.151,6.648,8.4,7.586,14.567s.7,12.579,1.371,18.818,2.519,12.73,6.345,15.927c4.787,4,11.812.676,13.959-6.607,1.054-3.572,1.017-7.6,1.805-11.312,1.388-6.53,5.132-11.376,8.1-16.732S773.221,384.85,771.245,378.633Z" transform="translate(-156.373 -156.01)" fill="#6c63ff"/>
        <path id="Path_24" data-name="Path 24" d="M721.945,314.462a13.324,13.324,0,0,1,1.3,1.379,4.531,4.531,0,0,1-.08,4.679,4.353,4.353,0,0,0,3.118-1.585,20.042,20.042,0,0,0,2.39-3.367,3.67,3.67,0,0,0,.7-2.937c-.236-.673-.793-.96-1.184-1.465a9.96,9.96,0,0,1-1.093-3.176,5.728,5.728,0,0,0-4.151-4.375l.25.048a2.372,2.372,0,0,0-1.111,2.526c.151.979.78,1.791.718,2.789-.09,1.435-1.524,2.109-1.613,3.544a2.74,2.74,0,0,0,.752,1.939Z" transform="translate(-156.373 -156.01)" fill="#6c63ff"/>
        <path id="Path_25" data-name="Path 25" d="M713.4,290.074l.022,0a4,4,0,0,0,.426-.453Z" transform="translate(-156.373 -156.01)" fill="#6c63ff"/>
        <path id="Path_26" data-name="Path 26" d="M714.893,296.81a4.351,4.351,0,0,0,1.354-4.313c-.362-1.632-1.645-2.729-2.828-2.428a2.883,2.883,0,0,1-2.681.789c-.732-.188-1.535-.673-2.169-.122a3.284,3.284,0,0,0-.739,1.443l-.7,2.162a1.365,1.365,0,0,0-.083.819.694.694,0,0,0,.532.423l4.227,1.246a3.642,3.642,0,0,0,3.091-.02Z" transform="translate(-156.373 -156.01)" fill="#6c63ff"/>
        <path id="Path_27" data-name="Path 27" d="M821.26,389.813l-1.954-3.2a10.686,10.686,0,0,0-2.575-3.233,2.281,2.281,0,0,0-3.214.284l-.034.042.079.609a13.755,13.755,0,0,1,3.432,6.7c.148,1.09.1,2.218.227,3.312a3.863,3.863,0,0,0,1.207,2.7c1.026.685,2.23-.325,2.96-1.558a5.364,5.364,0,0,0,.831-3.414,5.988,5.988,0,0,0-.959-2.24Z" transform="translate(-156.373 -156.01)" fill="#6c63ff"/>
        <path id="Path_28" data-name="Path 28" d="M831.478,391.2a7.382,7.382,0,0,0-.238-2.977,6.536,6.536,0,0,1,.995-3.705,12.047,12.047,0,0,0,1.549-3.4,2.843,2.843,0,0,0-.074-1.664c-.216-.484-.738-.705-1.037-.322l.641.413a5.838,5.838,0,0,0-2.6.126,3.219,3.219,0,0,0-1.971,2.222,13.764,13.764,0,0,1-.517,2.306c-.382.786-1.122,1.047-1.588,1.737a4.153,4.153,0,0,0,.065,3.946,4.605,4.605,0,0,0,2.605,2.049C830.089,392.215,831.119,392.23,831.478,391.2Z" transform="translate(-156.373 -156.01)" fill="#6c63ff"/>
        <path id="Path_29" data-name="Path 29" d="M849.672,396.691a8.953,8.953,0,0,0,1.128,2.069c.871.877,2.055.338,3.112.125a5.38,5.38,0,0,1,5.118,2.053,13.027,13.027,0,0,0-7.492-9.348,22.012,22.012,0,0,0-7.705-1.2l-.448.115C844.525,393.819,848.1,393.745,849.672,396.691Z" transform="translate(-156.373 -156.01)" fill="#6c63ff"/>
        <path id="Path_30" data-name="Path 30" d="M772.61,403.48l.007.014.13-.251Z" transform="translate(-156.373 -156.01)" fill="#6c63ff"/>
        <path id="Path_31" data-name="Path 31" d="M769.85,408.822a24.511,24.511,0,0,0-1.549,3.4,29.614,29.614,0,0,0-1.122,5.821c-.14,1.122-.184,2.554.519,3.1a1,1,0,0,0,1.3-.177,5.158,5.158,0,0,0,.946-1.405,32.373,32.373,0,0,0,3.191-7.575,13.181,13.181,0,0,0-.523-8.495Z" transform="translate(-156.373 -156.01)" fill="#6c63ff"/>
        <path id="Path_32" data-name="Path 32" d="M743.222,266.481a3.142,3.142,0,0,0,3.387.661,11.182,11.182,0,0,0,3.187-2.1,7.5,7.5,0,0,0,1.932-2.107,4.275,4.275,0,0,0,.4-3.256,3.307,3.307,0,0,0-2.521-1.994l-4.692-1.391,1.131-1.02c-1.164-.625-2.452.535-3.179,1.97a10.6,10.6,0,0,0-.965,2.971,7.626,7.626,0,0,0,1.325,6.271Z" transform="translate(-156.373 -156.01)" fill="#6c63ff"/>
        <path id="Path_33" data-name="Path 33" d="M770.833,257.212a2.583,2.583,0,0,0,3.521.286,3.936,3.936,0,0,0,1.557-2.805c.111-1.23-.5-2.6-1.366-2.7l.2-1.152c-1.674-.3-3.733-.363-4.63,1.669A4.771,4.771,0,0,0,770.833,257.212Z" transform="translate(-156.373 -156.01)" fill="#6c63ff"/>
        <g id="Group_1" data-name="Group 1" opacity="0.35">
          <path id="Path_34" data-name="Path 34" d="M1035.59,356.36c9.235-4.027-9.494-6.371-30.743-7.142s-46.955-.728-60.534-2.92c-13.133-2.12-12.166-5.89-13.27-9.305s-6.154-6.918-26.647-7.677c-25.537-.946-67.649,2.7-86.927.509-17.99-2.04-7.3-8.44-33.528-8.685-14.979-.14-34.277,1.97-50.944,2.479a185.712,185.712,0,0,1-35.348-1.843c-8.124-1.331-13.782-3.018-22.925-4.194-24-3.087-70.969-2.049-112.886,1.907s-77.848,10.439-98.112,16.86-25.862,12.743-21.142,18.1c3.014,3.423,10.727,6.624,29.437,8,35,2.573,97.3-1.856,133.465.485,20.155,1.3,29.1,4.539,46.78,6.309,19,1.9,46.81,2,74.135,1.957,56.894-.094,115.243-.678,174.741-1.75,24.851-.448,50.891-1.03,77.335-3.164s53.416-6.251,58.995-10.11" transform="translate(-156.373 -156.01)" fill="#fff"/>
        </g>
        <path id="Path_35" data-name="Path 35" d="M875.024,534.214q-19.368,0-42.457-1.464c-79.614-5.056-182.738-22.633-290.376-49.492s-206.93-59.794-279.585-92.734c-35.393-16.047-62.556-31.236-80.735-45.147-19.247-14.727-27.666-27.564-25.024-38.153,5.148-20.629,50.731-25.142,88.064-25.3l.013,3c-51.268.21-81.514,8.387-85.165,23.022-4.652,18.64,33.287,47.741,104.087,79.841,72.5,32.868,171.6,65.739,279.073,92.557s210.4,44.363,289.84,49.408c77.579,4.928,124.743-2.937,129.4-21.578,3.862-15.477-21.6-38.275-71.69-64.2l1.379-2.664c36.4,18.836,78.646,45.852,73.222,67.589-2.643,10.589-16.106,17.965-40.015,21.923C911.419,533.083,894.678,534.214,875.024,534.214Z" transform="translate(-156.373 -156.01)" fill="#6c63ff"/>
        <path id="Path_36" data-name="Path 36" d="M382.37,538.12c-35.6,0-68.694-1.221-98.322-3.686-38.727-3.223-69.415-8.4-91.21-15.4-23.077-7.405-35.319-16.667-36.388-27.528-2.083-21.158,39.334-40.725,74.445-53.413l1.02,2.822c-48.217,17.424-73.957,35.286-72.48,50.3C161.316,510.336,206.827,525,284.3,531.444c79.325,6.6,183.717,4.262,293.947-6.59s213.076-28.906,289.591-50.846c74.726-21.426,116.505-44.68,114.623-63.8-1.562-15.874-33.2-28.793-89.092-36.379l.4-2.973c40.61,5.512,89.479,16.762,91.674,39.058,1.069,10.861-9.133,22.332-30.323,34.094-20.015,11.109-49.1,22.173-86.458,32.883-76.685,21.988-179.72,40.081-290.125,50.948C509.278,534.657,442.292,538.12,382.37,538.12Z" transform="translate(-156.373 -156.01)" fill="#6c63ff"/>
        <circle id="Ellipse_2" data-name="Ellipse 2" cx="17.483" cy="17.483" r="17.483" transform="translate(420.365 410.509)" fill="#6c63ff"/>
        <circle id="Ellipse_3" data-name="Ellipse 3" cx="17.483" cy="17.483" r="17.483" transform="translate(76.091 307.29)" fill="#e6e6e6"/>
        <circle id="Ellipse_4" data-name="Ellipse 4" cx="10.702" cy="10.702" r="10.702" transform="translate(403.871 52.87)" fill="#ff6584"/>
        <circle id="Ellipse_5" data-name="Ellipse 5" cx="17.483" cy="17.483" r="17.483" transform="translate(332.337 120.099)" fill="#e6e6e6"/>
      </g>
      <g id="Group_4" data-name="Group 4" transform="translate(418.999 245.587)">
        <path id="Path_462" data-name="Path 462" d="M859.607,753.887c.74-5.387,1.5-10.842.981-16.287a25.616,25.616,0,0,0-4.939-13.43,22.345,22.345,0,0,0-5.732-5.194c-.573-.361-1.1.547-.53.907a21.24,21.24,0,0,1,8.4,10.137,34.005,34.005,0,0,1,1.805,14.666c-.191,2.989-.594,5.957-1,8.923a.542.542,0,0,0,.367.646.528.528,0,0,0,.646-.367Z" transform="translate(-521.519 -358.737)" fill="#f2f2f2"/>
        <path id="Path_37" data-name="Path 37" d="M620.168,426H314.489V120.319H620.168Z" transform="translate(-308.561 -120.319)" fill="#fff"/>
        <path id="Path_38" data-name="Path 38" d="M620.168,426H314.489V120.319H620.168Zm-301.162-4.516H615.651V124.835H319.005Z" transform="translate(-308.561 -120.319)" fill="#e5e5e5"/>
        <rect id="Rectangle_1" data-name="Rectangle 1" width="132.372" height="4.123" transform="translate(125.083 47.824)" fill="#e5e5e5"/>
        <rect id="Rectangle_2" data-name="Rectangle 2" width="132.372" height="4.123" transform="translate(125.083 58.545)" fill="#e5e5e5"/>
        <rect id="Rectangle_3" data-name="Rectangle 3" width="132.372" height="4.123" transform="translate(125.083 69.265)" fill="#e5e5e5"/>
        <rect id="Rectangle_4" data-name="Rectangle 4" width="132.372" height="4.123" transform="translate(125.083 139.883)" fill="#e5e5e5"/>
        <rect id="Rectangle_5" data-name="Rectangle 5" width="132.372" height="4.123" transform="translate(125.083 150.603)" fill="#e5e5e5"/>
        <rect id="Rectangle_6" data-name="Rectangle 6" width="132.372" height="4.123" transform="translate(125.083 161.324)" fill="#e5e5e5"/>
        <rect id="Rectangle_7" data-name="Rectangle 7" width="132.372" height="4.123" transform="translate(125.083 231.941)" fill="#e5e5e5"/>
        <rect id="Rectangle_8" data-name="Rectangle 8" width="132.372" height="4.123" transform="translate(125.083 242.662)" fill="#e5e5e5"/>
        <rect id="Rectangle_9" data-name="Rectangle 9" width="132.372" height="4.123" transform="translate(125.083 253.383)" fill="#e5e5e5"/>
        <path id="Path_39" data-name="Path 39" d="M406.242,249.268a44.213,44.213,0,0,0-7.055-2.969l-.31-3.432L386.3,241.512l-1.6,4.386-4.515,1.694a2.2,2.2,0,0,0-.458.239h0a2.237,2.237,0,0,0-.955,1.489,2.287,2.287,0,0,0,.034.9l.239.978c.344.205.7.4,1.05.587l.224.115c.516.267,1.041.52,1.58.754.11.048.229.1.339.143l.024.01c.253.105.506.205.764.3a25.088,25.088,0,0,0,2.587.831,26.6,26.6,0,0,0,6.859.9c.845,0,1.68-.038,2.506-.119a26.5,26.5,0,0,0,5.556-1.122s.01,0,.014,0a26.08,26.08,0,0,0,3.337-1.322s.014,0,.019-.01c.243-.115.477-.239.716-.358l.114-.057c.191-.1.382-.2.573-.305.477-.263.945-.539,1.408-.835.129-.076.253-.158.382-.243.181-.119.363-.243.539-.372C407.182,249.8,406.719,249.527,406.242,249.268Z" transform="translate(-334.151 -168.592)" fill="#3f3d56"/>
        <path id="Path_40" data-name="Path 40" d="M381.176,255.563l-.788-3.556h-2.057a.5.5,0,0,0-.062,0h0a4.458,4.458,0,0,0-2.071.716,4.588,4.588,0,0,0-1.107.993c.611.463,1.246.893,1.9,1.3l.029.014c.186.115.377.229.568.339.344.205.7.4,1.05.587l.224.115c.516.267,1.041.52,1.58.754.11.048.229.1.339.143l.024.01c.253.105.506.205.764.3Z" transform="translate(-332.698 -172.772)" fill="#3f3d56"/>
        <circle id="Ellipse_6" data-name="Ellipse 6" cx="9.062" cy="9.062" r="9.062" transform="translate(48.88 52.628)" fill="#ffb8b8"/>
        <path id="Path_41" data-name="Path 41" d="M388.166,209.881a5.73,5.73,0,0,0,3.99,1.552,37.577,37.577,0,0,0,10.2-.833c.207,2.01-.358,4.178.826,5.832a27.073,27.073,0,0,0,.962-6.138,5.875,5.875,0,0,0-.34-2.629,2.418,2.418,0,0,0-2.06-1.518,5.162,5.162,0,0,1,2.3-.984l-2.877-1.446.739-.759-5.209-.319,1.509-.958a32.716,32.716,0,0,0-6.854-.216,5.884,5.884,0,0,0-3.031.843,2.189,2.189,0,0,0-.823,2.74,3.979,3.979,0,0,0-3.032,2.406,6.424,6.424,0,0,0-.23,3.088,21.89,21.89,0,0,0,1.148,4.855Z" transform="translate(-336.308 -152.605)" fill="#2f2e41"/>
        <path id="Path_42" data-name="Path 42" d="M409.057,194.7a26.59,26.59,0,1,0-45.951,25.259c.239.3.487.6.74.893.019.019.033.038.052.057a25.793,25.793,0,0,0,1.981,2.043c.182.167.372.339.563.5.363.325.735.635,1.122.931.153.119.3.239.458.353.611.463,1.246.893,1.9,1.3l.029.014c.186.115.377.229.568.339.344.205.7.4,1.05.587l.224.115c.516.267,1.041.52,1.58.754.11.048.229.1.339.143l.024.01c.253.105.506.205.764.3a25.085,25.085,0,0,0,2.587.831,26.6,26.6,0,0,0,6.859.9c.845,0,1.68-.038,2.506-.119a26.5,26.5,0,0,0,5.556-1.122s.01,0,.014,0a26.078,26.078,0,0,0,3.337-1.322s.014,0,.019-.01c.243-.115.477-.239.716-.358l.114-.057c.191-.1.382-.2.573-.305.477-.263.945-.539,1.408-.835.129-.076.253-.158.382-.243.181-.119.363-.243.539-.372.234-.162.468-.329.7-.5.072-.052.148-.1.22-.162A26.581,26.581,0,0,0,409.057,194.7Zm-9.909,28.758c-.158.124-.32.243-.482.353s-.315.234-.477.339c-.138.1-.277.2-.42.286l-.043.029c-.105.072-.21.138-.315.205q-.594.372-1.2.716l-.129.072c-.181.1-.363.2-.544.291-.024.014-.053.024-.076.038l-.029.014c-.229.119-.463.234-.7.344a23.412,23.412,0,0,1-2.783,1.126c-.124.043-.248.086-.372.124a25.036,25.036,0,0,1-5.26,1.069c-.783.072-1.575.11-2.372.11a24.8,24.8,0,0,1-6.487-.85,23.568,23.568,0,0,1-3.184-1.079c-.053-.024-.11-.043-.162-.067s-.11-.043-.162-.067-.11-.048-.167-.076c-.449-.2-.893-.41-1.327-.635l-.21-.11c-.53-.277-1.05-.573-1.556-.888-.148-.091-.3-.186-.444-.286-.038-.024-.072-.048-.11-.072-.339-.224-.678-.458-1.007-.7-.224-.167-.449-.334-.668-.506-.368-.277-.721-.573-1.064-.878-.181-.153-.358-.32-.53-.477a24.254,24.254,0,0,1-1.919-1.986c-.2-.229-.4-.458-.582-.7a1.809,1.809,0,0,1-.119-.148,25.135,25.135,0,1,1,34.9,4.406Z" transform="translate(-325.635 -142.838)" fill="#3f3d56"/>
        <path id="Path_43" data-name="Path 43" d="M409.058,347.7a26.591,26.591,0,1,0-45.951,25.259c.239.3.487.6.74.893.019.019.033.038.052.057a25.84,25.84,0,0,0,1.981,2.043c.181.167.372.339.563.5.363.325.735.635,1.122.931a26.156,26.156,0,0,0,2.358,1.656l.029.014c.53.329,1.069.635,1.618.926l.224.115c.516.267,1.041.52,1.58.754.11.048.229.1.339.143l.024.01a25.821,25.821,0,0,0,3.351,1.131,26.6,26.6,0,0,0,6.859.9c.845,0,1.68-.038,2.506-.119a26.5,26.5,0,0,0,5.556-1.122s.01,0,.014,0a26.058,26.058,0,0,0,3.336-1.322s.014,0,.019-.01c.243-.115.477-.239.716-.358l.115-.057c.191-.1.382-.2.573-.305.477-.263.945-.539,1.408-.835.129-.076.253-.158.382-.243.42-.277.835-.573,1.236-.874.072-.052.148-.105.22-.162a26.582,26.582,0,0,0,9.031-29.918Z" transform="translate(-325.635 -203.78)" fill="#fff"/>
        <circle id="Ellipse_188" data-name="Ellipse 188" cx="3.985" cy="3.985" r="3.985" transform="translate(63.101 155.656)" fill="#2f2e41"/>
        <path id="Path_969" data-name="Path 969" d="M415.919,378.806a3.986,3.986,0,0,1,3.508,5.877,3.984,3.984,0,1,0-6.619-4.378,3.976,3.976,0,0,1,3.112-1.5Z" transform="translate(-347.723 -223.04)" fill="#2f2e41"/>
        <circle id="Ellipse_189" data-name="Ellipse 189" cx="11.706" cy="11.706" r="11.706" transform="translate(47.933 136.219)" fill="#2f2e41"/>
        <path id="Path_970" data-name="Path 970" d="M386.115,351.129a11.7,11.7,0,0,1,16.224-1.228c-.1-.091-.191-.183-.29-.271a11.706,11.706,0,1,0-15.622,17.439l.067.059c.1.088.2.172.3.256a11.7,11.7,0,0,1-.681-16.256Z" transform="translate(-335.663 -210.466)" fill="#2f2e41"/>
        <circle id="Ellipse_190" data-name="Ellipse 190" cx="7.54" cy="7.54" r="7.54" transform="translate(52 144.454)" fill="#a0616a"/>
        <path id="Path_44" data-name="Path 44" d="M403.315,397.929v2.53c-.463.3-.931.573-1.408.835-.191.105-.382.205-.573.305l-.115.057c-.239.119-.473.243-.716.358,0,0-.014,0-.019.01a26.06,26.06,0,0,1-3.337,1.322s-.009,0-.014,0a26.5,26.5,0,0,1-5.556,1.122c-.826.081-1.661.119-2.506.119a26.6,26.6,0,0,1-6.859-.9,25.827,25.827,0,0,1-3.351-1.131l-.024-.01c-.11-.048-.229-.1-.339-.143-.539-.234-1.064-.487-1.58-.754l-.224-.115c-.549-.291-1.088-.6-1.618-.926l-.029-.014a26.142,26.142,0,0,1-2.358-1.656c-.387-.3-.759-.606-1.122-.931-.191-.162-.382-.334-.563-.5a25.85,25.85,0,0,1-1.981-2.043,9.653,9.653,0,0,1,.363-1.465l0,0a2.137,2.137,0,0,1,.1-.239,1.9,1.9,0,0,1,.091-.2c.854-1.6,2.4-2,4.32-2.081,1.084-.048,2.281,0,3.546-.01.668,0,1.36-.029,2.052-.091,4.367-.4,3.575-2.974,3.771-4.363.2-1.346,1.408-.181,1.489-.1l0,0a15.4,15.4,0,0,0,7.923,1.389c.468-.057.935-.091,1.4-.1,1.231-.014.964.339.54.63a5.344,5.344,0,0,1-.644.363s-.2,1.193-.4,2.978c-.191,1.709,3.083,2.511,3.355,2.573a.029.029,0,0,0,.019,0,6.574,6.574,0,0,1,3.632.1h0a4.3,4.3,0,0,1,2.711,3.083Z" transform="translate(-330.284 -226.291)" fill="#6c63ff"/>
        <path id="Path_45" data-name="Path 45" d="M382.038,403.833c0,.353-.009.692-.024,1.012,0,.191-.014.377-.024.554l-.024-.01c-.11-.048-.229-.1-.339-.143-.539-.234-1.064-.487-1.58-.754l-.224-.115c-.549-.291-1.088-.6-1.618-.926.014-.167.038-.334.062-.5.052-.368.1-.74.124-1.107a15.361,15.361,0,0,0-1.36-7.522v0c-.1-.191-.153-.3-.153-.3a2.876,2.876,0,0,1,3.37,0,1.192,1.192,0,0,1,.33.286C381.771,395.713,382.1,400.448,382.038,403.833Z" transform="translate(-333.412 -229.125)" fill="#2f2e41"/>
        <path id="Path_46" data-name="Path 46" d="M418.986,405.5c-.019.535-.048,1.093-.081,1.661v0s-.014,0-.019.01a26.062,26.062,0,0,1-3.336,1.322s-.009,0-.014,0l-.052-1.341,0-.177-.253-6.53a1.1,1.1,0,0,1,1.093-1.146h2.42c.119,0,.205.243.263.683v0A41.357,41.357,0,0,1,418.986,405.5Z" transform="translate(-348.685 -231.445)" fill="#2f2e41"/>
        <path id="Path_975" data-name="Path 975" d="M392.874,357.267v7.541h1.746l2.222-2.381-.3,2.381h7.718l-.477-2.381.955,2.381h1.231v-7.541Z" transform="translate(-339.783 -214.698)" fill="#2f2e41"/>
        <ellipse id="Ellipse_191" data-name="Ellipse 191" cx="0.595" cy="1.091" rx="0.595" ry="1.091" transform="translate(51.306 149.316)" fill="#a0616a"/>
        <ellipse id="Ellipse_192" data-name="Ellipse 192" cx="0.595" cy="1.091" rx="0.595" ry="1.091" transform="translate(66.584 149.316)" fill="#a0616a"/>
        <path id="Path_47" data-name="Path 47" d="M426.322,405.94c-.4.3-.816.6-1.236.873-.129.086-.253.167-.382.243-.463.3-.931.573-1.408.835-.191.105-.382.205-.573.306v-5.26s.764.611,1.981,1.628c.153.129.31.263.477.406C425.534,405.267,425.916,405.591,426.322,405.94Z" transform="translate(-351.672 -232.889)" fill="#6c63ff"/>
        <path id="Path_48" data-name="Path 48" d="M409.058,347.7a26.591,26.591,0,1,0-45.951,25.259c.239.3.487.6.74.893.019.019.033.038.052.057a25.84,25.84,0,0,0,1.981,2.043c.181.167.372.339.563.5.363.325.735.635,1.122.931a26.156,26.156,0,0,0,2.358,1.656l.029.014c.53.329,1.069.635,1.618.926l.224.115c.516.267,1.041.52,1.58.754.11.048.229.1.339.143l.024.01a25.821,25.821,0,0,0,3.351,1.131,26.6,26.6,0,0,0,6.859.9c.845,0,1.68-.038,2.506-.119a26.5,26.5,0,0,0,5.556-1.122s.01,0,.014,0a26.058,26.058,0,0,0,3.336-1.322s.014,0,.019-.01c.243-.115.477-.239.716-.358l.115-.057c.191-.1.382-.2.573-.305.477-.263.945-.539,1.408-.835.129-.076.253-.158.382-.243.42-.277.835-.573,1.236-.874.072-.052.148-.105.22-.162a26.582,26.582,0,0,0,9.031-29.918Zm-9.909,28.758c-.158.124-.32.243-.482.353s-.315.234-.477.339c-.138.1-.277.2-.42.286-.119.081-.239.158-.358.234q-.594.372-1.2.716l-.129.072c-.181.1-.363.2-.544.291-.024.014-.053.024-.076.038l-.029.014c-.229.119-.463.234-.7.344a23.406,23.406,0,0,1-2.783,1.126c-.124.043-.248.086-.372.124a25.038,25.038,0,0,1-5.26,1.069c-.783.072-1.575.11-2.372.11a24.8,24.8,0,0,1-6.487-.85,23.575,23.575,0,0,1-3.184-1.079c-.11-.043-.22-.091-.325-.134-.057-.024-.11-.048-.167-.076-.449-.2-.892-.41-1.327-.635l-.21-.11c-.53-.277-1.05-.573-1.556-.888-.186-.115-.372-.234-.554-.358-.573-.377-1.131-.783-1.675-1.208-.368-.277-.721-.573-1.064-.878-.181-.153-.358-.32-.53-.477a24.288,24.288,0,0,1-1.919-1.986c-.2-.229-.4-.458-.582-.7a1.816,1.816,0,0,1-.119-.148,25.135,25.135,0,1,1,34.9,4.406Z" transform="translate(-325.635 -203.78)" fill="#3f3d56"/>
        <circle id="Ellipse_7" data-name="Ellipse 7" cx="10.418" cy="10.418" r="10.418" transform="translate(48.044 235.839)" fill="#2f2e41"/>
        <ellipse id="Ellipse_8" data-name="Ellipse 8" cx="4.311" cy="3.233" rx="4.311" ry="3.233" transform="translate(42.711 239.116) rotate(-45)" fill="#2f2e41"/>
        <ellipse id="Ellipse_9" data-name="Ellipse 9" cx="3.233" cy="4.311" rx="3.233" ry="4.311" transform="translate(60.121 236.92) rotate(-66.869)" fill="#2f2e41"/>
        <path id="Path_49" data-name="Path 49" d="M415.592,560l-1.227-1.931a4.818,4.818,0,0,0-8.809,3.905l.349,1.251.4,1.42a27.207,27.207,0,0,0,4.741-1.035.02.02,0,0,0,.012-.006,25.357,25.357,0,0,0,3.34-1.324c.006-.006.012-.006.018-.012.241-.114.475-.235.716-.355a1.048,1.048,0,0,0,.114-.06c.192-.1.385-.2.572-.3s.379-.211.559-.325Z" transform="translate(-344.669 -293.539)" fill="#cacaca"/>
        <circle id="Ellipse_10" data-name="Ellipse 10" cx="8.842" cy="8.842" r="8.842" transform="translate(49.95 239.903)" fill="#ffb6b6"/>
        <path id="Path_50" data-name="Path 50" d="M407.152,558.783a19.125,19.125,0,0,0-3.592-4.356,5.252,5.252,0,0,0-3.5-1.336H387.6a5.249,5.249,0,0,0-5.241,5.584,5.379,5.379,0,0,0,.217,1.191,5.657,5.657,0,0,0,.331.818l.614,1.227c.048.018.1.042.144.06.012.006.018.006.024.012.253.1.506.2.764.3a24.874,24.874,0,0,0,2.587.83,26.078,26.078,0,0,0,4.308.776c.848.078,1.7.12,2.551.12s1.679-.042,2.509-.12c.271-.024.541-.054.812-.084a27.2,27.2,0,0,0,4.741-1.035.021.021,0,0,0,.012-.006,25.368,25.368,0,0,0,3.34-1.324c.006-.006.012-.006.018-.012.241-.114.475-.235.716-.355a1.048,1.048,0,0,0,.114-.06c.192-.1.385-.2.572-.3s.379-.211.559-.325.373-.217.56-.331C407.628,559.607,407.393,559.186,407.152,558.783Z" transform="translate(-335.592 -292.697)" fill="#cacaca"/>
        <path id="Path_51" data-name="Path 51" d="M388.983,555.47a4.814,4.814,0,0,0-6.39,2.3l-1.107,1.673-.529.8-.806,1.215c.168.09.331.181.5.271l.222.114c.518.265,1.041.517,1.583.752.06.03.126.054.192.084.048.018.1.042.144.06.012.006.018.006.024.012.253.1.506.2.764.3a24.888,24.888,0,0,0,2.587.83,26.072,26.072,0,0,0,4.308.776l.421-1.426.409-1.36a4.821,4.821,0,0,0-2.323-6.4Z" transform="translate(-334.715 -293.463)" fill="#cacaca"/>
        <path id="Path_52" data-name="Path 52" d="M386.908,521.352a12.025,12.025,0,0,0,6.872,2.124,7.367,7.367,0,0,1-2.921,1.2,24.249,24.249,0,0,0,9.9.056,6.411,6.411,0,0,0,2.073-.712,2.624,2.624,0,0,0,1.28-1.712c.217-1.241-.75-2.369-1.755-3.129a12.947,12.947,0,0,0-10.88-2.174,5.958,5.958,0,0,0-3.222,1.821,2.935,2.935,0,0,0-.271,3.486Z" transform="translate(-337.407 -278.169)" fill="#2f2e41"/>
        <path id="Path_53" data-name="Path 53" d="M409.062,500.7a26.591,26.591,0,1,0-45.951,25.259c.234.3.487.6.74.891a.493.493,0,0,0,.048.06,25.363,25.363,0,0,0,1.985,2.04c.18.168.367.343.56.505.361.325.734.632,1.125.927.15.12.3.241.457.355.608.463,1.245.891,1.9,1.306a.046.046,0,0,1,.03.012c.187.114.379.229.572.337s.367.217.548.319.331.181.5.271l.222.114c.518.265,1.041.517,1.583.752.06.03.126.054.192.084.048.018.1.042.144.06.012.006.018.006.024.012.253.1.506.2.764.3a24.872,24.872,0,0,0,2.587.83,26.078,26.078,0,0,0,4.308.776c.848.078,1.7.12,2.551.12s1.679-.042,2.509-.12c.271-.024.541-.054.812-.084a27.2,27.2,0,0,0,4.741-1.035.02.02,0,0,0,.012-.006,25.371,25.371,0,0,0,3.34-1.324c.006-.006.012-.006.018-.012.241-.114.475-.235.716-.355a1.045,1.045,0,0,0,.114-.06c.192-.1.385-.2.572-.3s.379-.211.559-.325.373-.217.56-.331l.289-.18c.132-.078.253-.156.385-.247.18-.114.361-.241.535-.367.235-.162.469-.331.7-.505a2.606,2.606,0,0,0,.223-.162,26.608,26.608,0,0,0,9.031-29.916Zm-9.91,28.755c-.157.126-.319.247-.481.355s-.319.235-.482.343c-.138.1-.277.193-.421.283a.265.265,0,0,1-.042.03c-.1.072-.211.138-.313.2-.072.042-.144.09-.217.132-.211.132-.421.259-.638.379-.114.072-.235.138-.349.2l-.126.072c-.187.1-.367.193-.548.289-.024.018-.054.024-.072.042a.047.047,0,0,0-.03.012c-.229.12-.463.235-.7.343a23.232,23.232,0,0,1-2.786,1.125c-.12.042-.246.09-.367.126a25.185,25.185,0,0,1-4.711,1.011c-.18.024-.367.042-.554.06-.782.072-1.57.108-2.371.108-.71,0-1.426-.03-2.13-.09a24.805,24.805,0,0,1-4.356-.758,23.048,23.048,0,0,1-3.183-1.083c-.054-.024-.108-.042-.162-.066s-.108-.042-.162-.066-.108-.048-.169-.078c-.391-.169-.782-.355-1.161-.548-.054-.03-.108-.054-.162-.084l-.211-.108c-.126-.066-.253-.132-.373-.2-.4-.217-.8-.451-1.185-.692-.145-.09-.3-.187-.445-.283l-.108-.072c-.337-.229-.674-.457-1-.7-.223-.168-.451-.331-.668-.505-.367-.277-.722-.572-1.065-.878-.181-.15-.361-.319-.529-.475a23.878,23.878,0,0,1-1.919-1.986c-.2-.229-.4-.457-.584-.7-.042-.048-.078-.1-.12-.15a25.138,25.138,0,1,1,34.9,4.4Z" transform="translate(-325.636 -264.719)" fill="#3f3d56"/>
        <path id="Path_54" data-name="Path 54" d="M407.435,286.855a62.493,62.493,0,1,0,3.543,92.293l76.655,64.682a5.759,5.759,0,0,0,7.436-8.8l-.008-.007-76.655-64.682A62.5,62.5,0,0,0,407.435,286.855Zm-4.942,77.262a46.82,46.82,0,1,1-5.59-65.978h0a46.82,46.82,0,0,1,5.59,65.978Z" transform="translate(-304.638 -180.784)" fill="#3f3d56"/>
        <path id="Path_55" data-name="Path 55" d="M343.332,392.639a46.823,46.823,0,0,1-7.945-62.942q-1.343,1.352-2.6,2.833a46.82,46.82,0,1,0,71.567,60.388q1.251-1.482,2.355-3.036A46.823,46.823,0,0,1,343.332,392.639Z" transform="translate(-311.455 -203.716)" opacity="0.3"/>
      </g>
    </g>
  </g>
</svg>
