<svg xmlns="http://www.w3.org/2000/svg" enable-background="new 0 0 128 128" viewBox="0 0 128 128"><path fill="#2d3e50" d="M78.4,100.5c-6.9,0-12.5,5.6-12.5,12.5c0,6.9,5.6,12.5,12.5,12.5c6.9,0,12.5-5.6,12.5-12.5
		C90.9,106,85.3,100.5,78.4,100.5z M82.5,116.3c-0.1,0.3-0.3,0.7-0.5,0.9c-0.2,0.3-0.6,0.5-0.9,0.7c-0.4,0.2-0.9,0.4-1.4,0.5v2.1
		h-2.2v-2.1c-0.8-0.1-1.5-0.2-2.1-0.4c-0.5-0.2-0.9-0.3-1.2-0.5l0.7-2c0.4,0.2,0.9,0.4,1.4,0.5c0.6,0.2,1.2,0.2,1.8,0.2
		c0.7,0,1.2-0.1,1.4-0.3c0.3-0.2,0.4-0.5,0.4-0.8c0-0.2,0-0.4-0.2-0.6c-0.1-0.2-0.3-0.3-0.5-0.4c-0.2-0.1-0.4-0.3-0.7-0.4
		c-0.3-0.1-0.6-0.2-1-0.4c-0.4-0.1-0.8-0.3-1.1-0.5c-0.4-0.2-0.7-0.4-1-0.6c-0.3-0.2-0.5-0.5-0.7-0.9c-0.2-0.4-0.3-0.8-0.3-1.3
		c0-0.4,0.1-0.7,0.2-1.1c0.1-0.4,0.3-0.7,0.5-1c0.2-0.3,0.5-0.5,0.9-0.7c0.4-0.2,0.8-0.3,1.3-0.4v-1.9h2.2v1.8
		c0.6,0.1,1.1,0.1,1.6,0.3c0.4,0.1,0.8,0.2,1,0.3l-0.5,2.1c-0.4-0.2-0.8-0.3-1.3-0.4c-0.5-0.1-1-0.2-1.6-0.2s-1,0.1-1.2,0.3
		c-0.2,0.2-0.4,0.4-0.4,0.7c0,0.2,0,0.3,0.1,0.5c0.1,0.1,0.2,0.2,0.4,0.4c0.2,0.1,0.4,0.2,0.6,0.3c0.2,0.1,0.5,0.2,0.9,0.3
		c0.5,0.2,1,0.4,1.4,0.6c0.4,0.2,0.8,0.5,1.1,0.8c0.3,0.3,0.6,0.6,0.7,1c0.2,0.4,0.3,0.8,0.3,1.3C82.6,115.7,82.6,116,82.5,116.3z"/><path fill="#1d75b9" d="M68.8 101.3l-8.6-8.5c.9-1.4 1.5-3.1 1.5-4.9 0-4.9-4-8.9-8.9-8.9-4.9 0-8.9 4-8.9 8.9 0 1.8.5 3.5 1.5 4.9l-17 17.3c-1.4-.9-3.1-1.5-4.9-1.5-4.9 0-8.9 4-8.9 8.9s4 8.9 8.9 8.9c4.9 0 8.9-4 8.9-8.9 0-1.8-.5-3.5-1.5-4.9l17-17.3c1.4.9 3.1 1.5 4.9 1.5 1.8 0 3.5-.5 4.9-1.5l8.7 8.5C67 103 67.9 102.1 68.8 101.3zM105.4 77.4c-4.9 0-8.9 4-8.9 8.9 0 1.8.5 3.5 1.5 4.9l-10 10c1 .8 1.8 1.7 2.6 2.7l10.1-10.1c1.4.9 3.1 1.5 4.9 1.5 4.9 0 8.9-4 8.9-8.9S110.3 77.4 105.4 77.4z"/><path fill="#2d3e50" d="M36.4 32.4L36.4 32.4C38 40.3 45 46.1 53 46.1c8.1 0 15-5.8 16.6-13.7l2.1-10.8 0-.2c.7-5-.8-10.1-4.2-14s-8.2-6-13.3-6h-2.5c-5.1 0-9.9 2.2-13.3 6-3.3 3.8-4.9 8.9-4.2 14L36.4 32.4zM43.4 11.7c2.1-2.4 5.2-3.8 8.4-3.8h2.5c3.2 0 6.3 1.4 8.4 3.8 2.1 2.4 3.1 5.6 2.7 8.8l-2.1 10.7c-1 4.9-5.3 8.5-10.3 8.5-5 0-9.3-3.6-10.3-8.5l-2.1-10.7C40.3 17.3 41.3 14.1 43.4 11.7zM16.2 89.2c.2 0 .5.1.7.1 1.5 0 2.8-1 3.1-2.6l5-23.4c.1-.3.3-.5.5-.6l12.7-4.5 12.5 12.5c.6.6 1.4.9 2.3.9.9 0 1.7-.3 2.3-.9l12.5-12.5 12.7 4.5c0 0 0 0 0 0 .3.1.5.3.5.6l3.7 17.3c.3 1.5 1.7 2.6 3.1 2.6.2 0 .4 0 .7-.1 1.7-.4 2.9-2.1 2.5-3.8L87.4 62c-.5-2.5-2.3-4.5-4.7-5.3 0 0 0 0 0 0l-14.6-5.2c-1.2-.4-2.5-.1-3.4.8L53 63.9 41.3 52.2c-.9-.9-2.2-1.2-3.4-.8l-14.6 5.2c-2.4.9-4.2 2.9-4.7 5.4l-5 23.4C13.4 87.1 14.5 88.8 16.2 89.2z"/></svg>